<svg width="210" height="28" viewBox="0 0 210 28" fill="none" xmlns="http://www.w3.org/2000/svg">
<path d="M4.82528 0.818181V27H0.0823863V0.818181H4.82528ZM32.1969 0.818181V27H27.9782L15.6415 9.16619H15.4242V27H10.6813V0.818181H14.9256L27.2495 18.6648H27.4796V0.818181H32.1969ZM52.3136 8.01562C52.1943 6.89915 51.6914 6.02983 50.8051 5.40767C49.9272 4.78551 48.7852 4.47443 47.3789 4.47443C46.3903 4.47443 45.5423 4.62358 44.8349 4.92188C44.1275 5.22017 43.5863 5.625 43.2113 6.13636C42.8363 6.64773 42.6445 7.23153 42.636 7.88778C42.636 8.43324 42.7596 8.90625 43.0068 9.30682C43.2624 9.70739 43.6076 10.0483 44.0423 10.3295C44.4769 10.6023 44.9585 10.8324 45.4869 11.0199C46.0153 11.2074 46.548 11.3651 47.0849 11.4929L49.5394 12.1065C50.5281 12.3366 51.4784 12.6477 52.3903 13.0398C53.3107 13.4318 54.1332 13.9261 54.8576 14.5227C55.5906 15.1193 56.1701 15.8395 56.5962 16.6832C57.0224 17.527 57.2355 18.5156 57.2355 19.6491C57.2355 21.1832 56.8434 22.5341 56.0593 23.7017C55.2752 24.8608 54.1417 25.7685 52.6587 26.4247C51.1843 27.0724 49.3988 27.3963 47.3022 27.3963C45.2653 27.3963 43.4968 27.081 41.9968 26.4503C40.5053 25.8196 39.3377 24.8991 38.494 23.6889C37.6587 22.4787 37.207 21.0043 37.1389 19.2656H41.8051C41.8732 20.1776 42.1545 20.9361 42.6488 21.5412C43.1431 22.1463 43.7866 22.598 44.5792 22.8963C45.3803 23.1946 46.2752 23.3438 47.2639 23.3438C48.2951 23.3438 49.1985 23.1903 49.9741 22.8835C50.7582 22.5682 51.3718 22.1335 51.815 21.5795C52.2582 21.017 52.484 20.3608 52.4926 19.6108C52.484 18.929 52.2837 18.3665 51.8917 17.9233C51.4997 17.4716 50.9499 17.0966 50.2426 16.7983C49.5437 16.4915 48.7255 16.2187 47.788 15.9801L44.8093 15.2131C42.6531 14.6591 40.9485 13.8196 39.6957 12.6946C38.4514 11.5611 37.8292 10.0568 37.8292 8.18182C37.8292 6.6392 38.2468 5.28835 39.082 4.12926C39.9258 2.97017 41.0721 2.07102 42.521 1.43182C43.9698 0.78409 45.6105 0.460226 47.4428 0.460226C49.3008 0.460226 50.9286 0.78409 52.3264 1.43182C53.7326 2.07102 54.8363 2.96165 55.6374 4.10369C56.4386 5.23721 56.8519 6.54119 56.8775 8.01562H52.3136ZM61.0332 4.79403V0.818181H81.9224V4.79403H73.8301V27H69.1256V4.79403H61.0332ZM86.8676 27H81.8051L91.0224 0.818181H96.8775L106.108 27H101.045L94.0522 6.1875H93.8477L86.8676 27ZM87.0338 16.7344H100.841V20.544H87.0338V16.7344ZM124.083 8.01562C123.964 6.89915 123.461 6.02983 122.574 5.40767C121.697 4.78551 120.555 4.47443 119.148 4.47443C118.16 4.47443 117.312 4.62358 116.604 4.92188C115.897 5.22017 115.356 5.625 114.981 6.13636C114.606 6.64773 114.414 7.23153 114.405 7.88778C114.405 8.43324 114.529 8.90625 114.776 9.30682C115.032 9.70739 115.377 10.0483 115.812 10.3295C116.246 10.6023 116.728 10.8324 117.256 11.0199C117.785 11.2074 118.317 11.3651 118.854 11.4929L121.309 12.1065C122.297 12.3366 123.248 12.6477 124.16 13.0398C125.08 13.4318 125.903 13.9261 126.627 14.5227C127.36 15.1193 127.939 15.8395 128.366 16.6832C128.792 17.527 129.005 18.5156 129.005 19.6491C129.005 21.1832 128.613 22.5341 127.829 23.7017C127.045 24.8608 125.911 25.7685 124.428 26.4247C122.954 27.0724 121.168 27.3963 119.072 27.3963C117.035 27.3963 115.266 27.081 113.766 26.4503C112.275 25.8196 111.107 24.8991 110.263 23.6889C109.428 22.4787 108.976 21.0043 108.908 19.2656H113.574C113.643 20.1776 113.924 20.9361 114.418 21.5412C114.912 22.1463 115.556 22.598 116.349 22.8963C117.15 23.1946 118.045 23.3438 119.033 23.3438C120.064 23.3438 120.968 23.1903 121.743 22.8835C122.528 22.5682 123.141 22.1335 123.584 21.5795C124.028 21.017 124.253 20.3608 124.262 19.6108C124.253 18.929 124.053 18.3665 123.661 17.9233C123.269 17.4716 122.719 17.0966 122.012 16.7983C121.313 16.4915 120.495 16.2187 119.557 15.9801L116.579 15.2131C114.422 14.6591 112.718 13.8196 111.465 12.6946C110.221 11.5611 109.599 10.0568 109.599 8.18182C109.599 6.6392 110.016 5.28835 110.851 4.12926C111.695 2.97017 112.841 2.07102 114.29 1.43182C115.739 0.78409 117.38 0.460226 119.212 0.460226C121.07 0.460226 122.698 0.78409 124.096 1.43182C125.502 2.07102 126.606 2.96165 127.407 4.10369C128.208 5.23721 128.621 6.54119 128.647 8.01562H124.083ZM133.953 27V0.818181H138.696V11.902H150.828V0.818181H155.584V27H150.828V15.8778H138.696V27H133.953ZM184.857 13.9091C184.857 16.7301 184.329 19.1463 183.272 21.1577C182.224 23.1605 180.792 24.6946 178.976 25.7599C177.17 26.8253 175.12 27.358 172.827 27.358C170.535 27.358 168.481 26.8253 166.665 25.7599C164.859 24.6861 163.427 23.1477 162.37 21.1449C161.322 19.1335 160.797 16.7216 160.797 13.9091C160.797 11.0881 161.322 8.67614 162.37 6.6733C163.427 4.66193 164.859 3.12358 166.665 2.05824C168.481 0.992897 170.535 0.460226 172.827 0.460226C175.12 0.460226 177.17 0.992897 178.976 2.05824C180.792 3.12358 182.224 4.66193 183.272 6.6733C184.329 8.67614 184.857 11.0881 184.857 13.9091ZM180.089 13.9091C180.089 11.9233 179.778 10.2486 179.155 8.88494C178.542 7.51278 177.689 6.47727 176.599 5.77841C175.508 5.07102 174.251 4.71733 172.827 4.71733C171.404 4.71733 170.147 5.07102 169.056 5.77841C167.965 6.47727 167.109 7.51278 166.486 8.88494C165.873 10.2486 165.566 11.9233 165.566 13.9091C165.566 15.8949 165.873 17.5739 166.486 18.946C167.109 20.3097 167.965 21.3452 169.056 22.0526C170.147 22.7514 171.404 23.1009 172.827 23.1009C174.251 23.1009 175.508 22.7514 176.599 22.0526C177.689 21.3452 178.542 20.3097 179.155 18.946C179.778 17.5739 180.089 15.8949 180.089 13.9091ZM190.061 27V0.818181H199.879C201.891 0.818181 203.578 1.19318 204.942 1.94318C206.314 2.69318 207.349 3.72443 208.048 5.03693C208.756 6.34091 209.109 7.82386 209.109 9.4858C209.109 11.1648 208.756 12.6562 208.048 13.9602C207.341 15.2642 206.297 16.2912 204.916 17.0412C203.536 17.7827 201.835 18.1534 199.815 18.1534H193.308V14.2543H199.176C200.352 14.2543 201.315 14.0497 202.065 13.6406C202.815 13.2315 203.369 12.669 203.727 11.9531C204.094 11.2372 204.277 10.4148 204.277 9.4858C204.277 8.55682 204.094 7.73864 203.727 7.03125C203.369 6.32386 202.811 5.77415 202.053 5.3821C201.303 4.98153 200.335 4.78125 199.151 4.78125H194.804V27H190.061Z" fill="url(#paint0_linear_69_2270)"/>
<defs>
<linearGradient id="paint0_linear_69_2270" x1="-2" y1="-8.00001" x2="212" y2="27" gradientUnits="userSpaceOnUse">
<stop stop-color="white"/>
<stop offset="1" stop-color="white" stop-opacity="0.5"/>
</linearGradient>
</defs>
</svg>
